<?xml version="1.0" encoding="utf-8"?>
<!-- Generator: Adobe Illustrator 27.5.0, SVG Export Plug-In . SVG Version: 6.00 Build 0)  -->
<svg version="1.1" id="Layer_2_00000132806526117056267700000014408279772385014437_"
	 xmlns="http://www.w3.org/2000/svg" xmlns:xlink="http://www.w3.org/1999/xlink" x="0px" y="0px" viewBox="0 0 172.5 155.1"
	 style="enable-background:new 0 0 172.5 155.1;" xml:space="preserve">
<style type="text/css">
	.st0{fill:#532D29;}
	.st1{fill:#F9DEBE;}
	.st2{fill:#FFFFFF;}
</style>
<g id="Layer_1-2">
	<g>
		<path class="st0" d="M157,114.5c-4.9-5.2-11.9-8.6-19.6-8.6h-4.1V70.8l-19.9-35.9H94.9l-10.3-15L47.9,70.8h-11V106h-1.8
			c-7.7,0-14.7,3.3-19.6,8.6H0v0.9h172.5v-0.9L157,114.5L157,114.5z"/>
		<path class="st1" d="M85,3.9c14,0,25.8,9.2,29.9,21.9C112.7,11.2,100.2,0,85,0S57.2,11.2,55.1,25.7C59.2,13.1,71,3.9,85,3.9"/>
		<path class="st1" d="M103.4,70.6h-1V59.2h1V70.6z M103.4,95.6h-1V84.3h1V95.6z M101.7,70.6h-3.6V59.2h3.6V70.6z M101.7,95.6h-3.6
			V84.3h3.6V95.6z M114.7,77.3h10.6V106h4.7V77.3h1.7V106h1.5V76.4l0,0v-5.6h-13.6l-14.5-28L82.6,68.9v34.2h32.1V77.3L114.7,77.3z"
			/>
		<rect x="48" y="81.1" class="st1" width="9.2" height="22"/>
		<rect x="58.4" y="81.1" class="st1" width="9.2" height="22"/>
	</g>
	<g>
		<path class="st2" d="M24.1,132.9c0,0.3,0,0.6,0,0.7s0,0.3,0.1,0.4s0.1,0.2,0.1,0.2s0.1,0.1,0.2,0.2s0.3,0.1,0.5,0.1v0.4h-3.4v-0.4
			c0.3-0.1,0.5-0.2,0.6-0.2s0.2-0.2,0.2-0.4s0.1-0.5,0.1-1v-3.4H18v3.4c0,0.4,0,0.6,0,0.8s0.1,0.3,0.1,0.4s0.1,0.2,0.2,0.2
			s0.3,0.1,0.5,0.2v0.4h-3.4v-0.4c0.3-0.1,0.6-0.2,0.7-0.3s0.2-0.3,0.2-0.4s0-0.5,0-0.9v-7.1c0-0.4,0-0.7,0-0.8s-0.1-0.3-0.1-0.4
			s-0.1-0.2-0.2-0.2s-0.3-0.1-0.5-0.2v-0.4H19v0.4c-0.2,0.1-0.4,0.1-0.5,0.2s-0.2,0.1-0.2,0.2s-0.1,0.2-0.1,0.4s0,0.5,0,0.8v2.9h4.5
			v-2.9c0-0.5,0-0.8-0.1-1s-0.1-0.3-0.2-0.4s-0.3-0.2-0.6-0.3v-0.4h3.4v0.4c-0.3,0.1-0.5,0.2-0.6,0.3s-0.2,0.2-0.2,0.4
			s-0.1,0.5-0.1,0.9v7.2H24.1z"/>
		<path class="st2" d="M30.4,135.1c-1.1,0-2-0.3-2.6-1s-0.9-1.6-0.9-2.9c0-0.9,0.2-1.6,0.5-2.3s0.7-1.1,1.3-1.4s1.2-0.4,1.9-0.4
			c1.2,0,2,0.3,2.6,1s0.9,1.6,0.9,2.9c0,0.9-0.2,1.7-0.5,2.3s-0.7,1.1-1.3,1.4S31.1,135.1,30.4,135.1L30.4,135.1z M28.4,131
			c0,1.1,0.2,2,0.5,2.6s0.9,0.9,1.5,0.9c0.4,0,0.7-0.1,0.9-0.3s0.5-0.4,0.6-0.7c0.2-0.3,0.3-0.6,0.3-1s0.1-0.8,0.1-1.2
			c0-0.8-0.1-1.5-0.3-2s-0.4-0.9-0.7-1.2s-0.6-0.4-1-0.4c-0.7,0-1.2,0.3-1.5,0.9S28.5,129.9,28.4,131L28.4,131z"/>
		<path class="st2" d="M37.9,132.9c0,0.5,0,0.8,0.1,1s0.1,0.3,0.2,0.4s0.3,0.2,0.6,0.2v0.4h-3.2v-0.4c0.3-0.1,0.5-0.1,0.6-0.2
			s0.2-0.2,0.2-0.3s0.1-0.2,0.1-0.4s0-0.4,0-0.7v-6.8c0-0.5,0-0.9,0-1.1s0-0.4-0.1-0.5s-0.1-0.3-0.2-0.3S36,124,36,124
			s-0.3-0.1-0.6-0.2v-0.4l2-0.1h0.5V132.9L37.9,132.9z"/>
		<path class="st2" d="M40.2,134.6c0.2-0.1,0.4-0.1,0.5-0.2s0.2-0.1,0.2-0.2s0.1-0.2,0.2-0.4s0-0.5,0-0.8v-3.6c0-0.4,0-0.6,0-0.8
			s0-0.4-0.1-0.5s-0.2-0.2-0.3-0.3s-0.3-0.1-0.6-0.2v-0.4l1.9-0.1h0.5v5.8c0,0.5,0,0.8,0.1,1s0.1,0.3,0.2,0.4s0.3,0.2,0.6,0.2v0.4
			h-3.2L40.2,134.6L40.2,134.6z M42.6,124v1.6h-1.5V124H42.6z"/>
		<path class="st2" d="M50.4,126.1c0-0.5,0-0.9,0-1.1s0-0.4-0.1-0.5s-0.1-0.3-0.2-0.3s-0.2-0.2-0.2-0.2s-0.3-0.1-0.6-0.2v-0.4l2-0.1
			h0.5v9.4c0,0.4,0,0.7,0,0.9s0,0.3,0.1,0.4s0.1,0.2,0.3,0.3s0.3,0.1,0.6,0.2v0.4l-1.9,0.1h-0.5l0.1-1.3h-0.1
			c-0.3,0.4-0.6,0.6-0.9,0.8s-0.5,0.3-0.8,0.4s-0.6,0.2-0.9,0.2c-0.9,0-1.6-0.3-2.1-1s-0.7-1.6-0.7-2.9c0-0.9,0.2-1.6,0.5-2.3
			s0.7-1.1,1.3-1.4s1.1-0.5,1.8-0.5c0.4,0,0.7,0,1,0.1s0.6,0.2,0.9,0.3L50.4,126.1L50.4,126.1z M50.4,130.1c0-0.4,0-0.8-0.1-1
			s-0.1-0.5-0.2-0.6s-0.2-0.3-0.4-0.4s-0.3-0.2-0.5-0.3s-0.4-0.1-0.7-0.1c-0.7,0-1.2,0.3-1.6,0.8c-0.4,0.6-0.5,1.4-0.5,2.4
			s0.2,1.8,0.5,2.4s0.8,0.8,1.4,0.8c0.2,0,0.4,0,0.6-0.1s0.3-0.1,0.5-0.2s0.3-0.2,0.5-0.4s0.3-0.3,0.3-0.4s0.1-0.3,0.2-0.4
			s0.1-0.4,0.1-0.6L50.4,130.1L50.4,130.1z"/>
		<path class="st2" d="M58.8,133.8L58.8,133.8c-0.6,0.5-1,0.8-1.4,1s-0.9,0.3-1.3,0.3c-0.4,0-0.8-0.1-1.1-0.2s-0.6-0.4-0.7-0.7
			s-0.2-0.6-0.2-1c0-0.8,0.4-1.4,1.2-1.8s2-0.7,3.5-0.8V130c0-0.6,0-1-0.2-1.3s-0.3-0.6-0.5-0.7s-0.5-0.2-0.9-0.2s-0.8,0.1-1,0.3
			c-0.3,0.2-0.5,0.6-0.6,1h-1.1V128c0.5-0.3,1-0.5,1.3-0.6s0.7-0.2,1-0.3s0.7-0.1,1.1-0.1c0.5,0,1,0.1,1.3,0.3s0.6,0.4,0.7,0.8
			c0.2,0.4,0.2,0.9,0.2,1.6v2.8c0,0.4,0,0.7,0,0.9s0,0.3,0,0.5s0.1,0.2,0.1,0.3s0.1,0.2,0.2,0.2s0.3,0.1,0.5,0.2v0.4h-2.2
			L58.8,133.8L58.8,133.8z M58.7,131.2c-1.1,0-1.9,0.2-2.5,0.4s-0.8,0.7-0.8,1.3c0,0.3,0.1,0.6,0.2,0.7s0.3,0.3,0.5,0.4
			s0.4,0.1,0.7,0.1c0.4,0,0.7-0.1,1-0.3s0.5-0.4,0.7-0.7s0.2-0.6,0.2-0.8C58.7,132.3,58.7,131.2,58.7,131.2z"/>
		<path class="st2" d="M65.4,135.6c-0.3,0.7-0.6,1.2-0.9,1.6s-0.6,0.7-0.9,0.9s-0.7,0.3-1.2,0.3c-0.3,0-0.6,0-1-0.1v-1.6h0.7
			c0.1,0.2,0.2,0.4,0.2,0.5s0.2,0.1,0.4,0.1s0.3,0,0.4-0.1s0.3-0.2,0.4-0.3s0.3-0.4,0.5-0.7s0.4-0.7,0.6-1.2l-2.3-6.1
			c-0.2-0.4-0.3-0.7-0.3-0.8s-0.2-0.3-0.3-0.4s-0.3-0.2-0.5-0.2v-0.4h3.3v0.4c-0.3,0.1-0.4,0.1-0.5,0.2s-0.2,0.1-0.2,0.2
			s-0.1,0.2-0.1,0.3s0,0.3,0,0.5s0.1,0.3,0.2,0.6l1.4,4.1l1.6-3.9c0.1-0.2,0.2-0.4,0.2-0.6s0.1-0.4,0.1-0.5c0-0.2-0.1-0.4-0.2-0.5
			s-0.3-0.2-0.7-0.3v-0.4h3.1v0.4c-0.2,0-0.4,0.1-0.5,0.2s-0.2,0.2-0.3,0.4s-0.2,0.5-0.4,0.8L65.4,135.6L65.4,135.6z"/>
		<path class="st2" d="M79.7,135v-0.4c0.3-0.1,0.5-0.1,0.6-0.2s0.2-0.2,0.3-0.3s0.1-0.3,0.1-0.5s0-0.4-0.1-0.6s-0.1-0.4-0.2-0.7
			l-0.3-1.1h-3.8L76,132c-0.1,0.4-0.2,0.7-0.3,0.9s-0.1,0.4-0.1,0.6c0,0.3,0.1,0.6,0.2,0.7s0.4,0.2,0.8,0.3v0.4h-3.5v-0.4
			c0.3-0.1,0.6-0.2,0.8-0.5s0.4-0.7,0.7-1.3l3.4-9h1.3l2.8,9.1c0.1,0.4,0.2,0.8,0.3,1s0.2,0.4,0.4,0.5s0.3,0.2,0.6,0.3v0.4H79.7
			L79.7,135z M76.6,130.6H80l-1.6-5.2L76.6,130.6z"/>
		<path class="st2" d="M86.6,134.7v1.7c0,0.4,0,0.6,0,0.8s0.1,0.3,0.1,0.4s0.2,0.2,0.3,0.2s0.3,0.1,0.6,0.2v0.4h-3.3V138
			c0.2-0.1,0.3-0.1,0.5-0.2s0.2-0.1,0.3-0.2s0.1-0.3,0.1-0.4s0-0.4,0-0.8v-7c0-0.4,0-0.7,0-0.8s0-0.3-0.1-0.4S85,128,85,127.9
			s-0.2-0.1-0.2-0.2s-0.3-0.1-0.5-0.2v-0.4l1.9-0.1h0.5l-0.1,1.3h0.1c0.3-0.3,0.6-0.6,0.8-0.8s0.4-0.3,0.6-0.4s0.4-0.2,0.6-0.2
			s0.4-0.1,0.6-0.1c0.9,0,1.6,0.3,2.1,1s0.7,1.6,0.7,2.9c0,0.9-0.1,1.6-0.4,2.3s-0.7,1.1-1.2,1.4s-1.1,0.5-1.8,0.5
			c-0.4,0-0.8,0-1.1-0.1S86.9,134.8,86.6,134.7L86.6,134.7z M86.6,132c0,0.5,0,0.9,0.1,1.2s0.2,0.5,0.3,0.7s0.4,0.3,0.6,0.4
			s0.5,0.1,0.9,0.1c0.7,0,1.2-0.3,1.5-0.8s0.5-1.4,0.5-2.4c0-2.1-0.6-3.2-1.9-3.2c-0.3,0-0.6,0.1-0.8,0.1s-0.4,0.2-0.7,0.5
			s-0.4,0.4-0.5,0.6s-0.1,0.4-0.1,0.6L86.6,132L86.6,132z"/>
		<path class="st2" d="M98.4,133.8L98.4,133.8c-0.6,0.5-1,0.8-1.4,1s-0.9,0.3-1.3,0.3s-0.8-0.1-1.1-0.2s-0.6-0.4-0.7-0.7
			s-0.2-0.6-0.2-1c0-0.8,0.4-1.4,1.2-1.8s2-0.7,3.5-0.8V130c0-0.6-0.1-1-0.2-1.3s-0.3-0.6-0.5-0.7s-0.6-0.2-0.9-0.2
			c-0.4,0-0.8,0.1-1,0.3c-0.3,0.2-0.4,0.6-0.6,1H94V128c0.5-0.3,1-0.5,1.3-0.6s0.7-0.2,1-0.3s0.7-0.1,1.1-0.1c0.5,0,1,0.1,1.3,0.3
			s0.6,0.4,0.7,0.8c0.2,0.4,0.2,0.9,0.2,1.6v2.8c0,0.4,0,0.7,0,0.9s0,0.3,0.1,0.5s0.1,0.2,0.1,0.3s0.1,0.2,0.2,0.2s0.3,0.1,0.5,0.2
			v0.4h-2.2L98.4,133.8L98.4,133.8z M98.3,131.2c-1.1,0-1.9,0.2-2.5,0.4S95,132.4,95,133c0,0.3,0.1,0.6,0.2,0.7s0.3,0.3,0.5,0.4
			s0.4,0.1,0.7,0.1c0.4,0,0.7-0.1,1-0.3s0.5-0.4,0.7-0.7s0.2-0.6,0.2-0.8L98.3,131.2L98.3,131.2z"/>
		<path class="st2" d="M104,128.5L104,128.5c0.4-0.4,0.7-0.7,0.9-0.9s0.5-0.4,0.8-0.5s0.6-0.2,1-0.2c0.3,0,0.6,0,0.9,0.1v1.9h-0.9
			c-0.1-0.3-0.3-0.5-0.4-0.6s-0.3-0.2-0.6-0.2c-0.2,0-0.4,0.1-0.6,0.2s-0.4,0.3-0.6,0.5s-0.3,0.4-0.4,0.6s-0.1,0.4-0.1,0.7v2.9
			c0,0.5,0,0.8,0.1,1s0.2,0.3,0.3,0.4s0.3,0.1,0.6,0.2v0.4h-3.3v-0.4c0.2-0.1,0.3-0.1,0.4-0.2s0.2-0.1,0.2-0.2s0.1-0.2,0.2-0.4
			s0.1-0.5,0.1-0.8v-3.6c0-0.4,0-0.6,0-0.8s-0.1-0.4-0.1-0.5s-0.2-0.2-0.3-0.3s-0.3-0.1-0.6-0.2v-0.4l1.9-0.1h0.5V128.5L104,128.5z"
			/>
		<path class="st2" d="M108.2,127.6c0.3,0,0.5-0.1,0.7-0.2s0.3-0.2,0.4-0.4s0.2-0.4,0.2-0.6s0.1-0.6,0.2-1.1h1.2v2h2.6v0.8h-2.6v3.6
			c0,0.5,0,0.9,0.1,1.3s0.1,0.6,0.2,0.7s0.3,0.3,0.4,0.4s0.3,0.1,0.6,0.1c0.2,0,0.4,0,0.6-0.1s0.4-0.2,0.6-0.4l0.4,0.4
			c-0.4,0.4-0.8,0.6-1.1,0.8s-0.7,0.2-1.1,0.2c-0.7,0-1.2-0.2-1.6-0.6s-0.5-1.1-0.5-1.9V128h-1.2L108.2,127.6L108.2,127.6z"/>
		<path class="st2" d="M116.6,128.4L116.6,128.4c0.4-0.3,0.7-0.6,0.9-0.7s0.4-0.3,0.6-0.4s0.4-0.2,0.6-0.2s0.3-0.1,0.5-0.1
			c0.5,0,1,0.1,1.3,0.4s0.6,0.6,0.7,1.1c0.4-0.4,0.7-0.7,1-0.9s0.5-0.3,0.8-0.4s0.6-0.2,0.8-0.2c0.4,0,0.7,0.1,0.9,0.2
			s0.5,0.3,0.7,0.5s0.3,0.5,0.4,0.8s0.1,0.8,0.1,1.3v3.1c0,0.4,0,0.7,0,0.9s0.1,0.3,0.1,0.4s0.1,0.2,0.2,0.2s0.3,0.1,0.5,0.2v0.4
			h-3.2v-0.4c0.2-0.1,0.4-0.1,0.5-0.2s0.2-0.1,0.2-0.2s0.1-0.2,0.2-0.4s0.1-0.5,0.1-0.8v-2.1c0-0.5,0-0.8,0-1.1s-0.1-0.5-0.1-0.7
			s-0.1-0.3-0.2-0.4s-0.2-0.2-0.2-0.3s-0.2-0.1-0.3-0.2s-0.3-0.1-0.5-0.1s-0.4,0-0.6,0.1s-0.4,0.2-0.6,0.4s-0.4,0.4-0.5,0.6
			s-0.2,0.4-0.2,0.7v3c0,0.4,0,0.7,0,0.9s0.1,0.3,0.1,0.4s0.1,0.2,0.2,0.2s0.3,0.1,0.5,0.2v0.4H119v-0.4c0.2-0.1,0.4-0.1,0.5-0.2
			s0.2-0.1,0.2-0.2s0.1-0.2,0.2-0.4s0.1-0.5,0.1-0.8v-2.1c0-0.5,0-0.9,0-1.2s-0.1-0.6-0.1-0.7s-0.1-0.3-0.2-0.4s-0.2-0.2-0.3-0.3
			s-0.2-0.1-0.3-0.1s-0.3,0-0.4,0c-0.2,0-0.4,0.1-0.6,0.1s-0.4,0.2-0.6,0.4s-0.4,0.4-0.5,0.6s-0.2,0.4-0.2,0.7v3.1
			c0,0.3,0,0.6,0,0.7s0,0.3,0.1,0.4s0.1,0.2,0.1,0.2s0.1,0.1,0.2,0.2s0.2,0.1,0.4,0.2v0.4h-3.2v-0.4c0.2-0.1,0.3-0.1,0.4-0.2
			s0.2-0.1,0.2-0.2s0.1-0.2,0.2-0.4s0.1-0.5,0.1-0.8v-3.6c0-0.4,0-0.6,0-0.8s-0.1-0.4-0.1-0.5s-0.2-0.2-0.3-0.3s-0.3-0.1-0.6-0.2
			v-0.4l1.9-0.1h0.5L116.6,128.4L116.6,128.4z"/>
		<path class="st2" d="M134.8,133.6c-0.4,0.4-0.7,0.6-1,0.9s-0.6,0.4-1,0.5s-0.7,0.2-1.1,0.2c-1.1,0-2-0.3-2.5-1s-0.9-1.7-0.9-3
			c0-0.8,0.1-1.5,0.4-2.1s0.7-1.1,1.2-1.4s1.2-0.5,1.9-0.5c0.6,0,1,0.1,1.4,0.3s0.7,0.4,0.9,0.7s0.4,0.7,0.5,1.1s0.2,1.1,0.2,1.8
			h-5.1v0.1c0,0.6,0.1,1.2,0.2,1.6s0.4,0.8,0.7,1s0.8,0.4,1.3,0.4c0.4,0,0.9-0.1,1.2-0.2s0.7-0.4,1.1-0.8L134.8,133.6L134.8,133.6z
			 M133.4,130.3c0-0.6-0.1-1.1-0.2-1.4s-0.3-0.7-0.5-0.9s-0.5-0.3-0.9-0.3c-0.6,0-1,0.2-1.3,0.7s-0.5,1.1-0.6,1.9H133.4L133.4,130.3
			z"/>
		<path class="st2" d="M144.3,135h-3.2v-0.4c0.2-0.1,0.4-0.1,0.5-0.2s0.2-0.1,0.2-0.2s0.1-0.2,0.1-0.4s0.1-0.5,0.1-0.8v-2.1
			c0-0.4,0-0.7,0-1s-0.1-0.6-0.1-0.8s-0.1-0.4-0.2-0.5s-0.2-0.2-0.3-0.3s-0.2-0.1-0.4-0.2s-0.3-0.1-0.5-0.1s-0.4,0-0.6,0.1
			s-0.4,0.2-0.6,0.4s-0.4,0.4-0.5,0.6s-0.1,0.4-0.1,0.7v3c0,0.5,0,0.8,0.1,1s0.1,0.3,0.2,0.4s0.3,0.2,0.6,0.2v0.4h-3.2v-0.4
			c0.2-0.1,0.4-0.1,0.4-0.2s0.2-0.1,0.2-0.2s0.1-0.2,0.1-0.4s0.1-0.5,0.1-0.8v-3.6c0-0.4,0-0.6,0-0.8s-0.1-0.4-0.1-0.5
			s-0.2-0.2-0.3-0.3s-0.3-0.1-0.6-0.2V127l1.9-0.1h0.5l-0.1,1.3h0.1c0.4-0.4,0.7-0.7,1-0.9s0.5-0.3,0.8-0.4s0.5-0.1,0.8-0.1
			s0.6,0,0.8,0.1s0.4,0.2,0.6,0.3s0.3,0.3,0.4,0.5s0.2,0.5,0.3,0.8s0.1,0.7,0.1,1.1v3.1c0,0.4,0,0.6,0,0.8s0.1,0.3,0.1,0.4
			s0.1,0.2,0.2,0.2s0.3,0.1,0.5,0.2L144.3,135L144.3,135z"/>
		<path class="st2" d="M145.2,127.6c0.3,0,0.5-0.1,0.7-0.2s0.3-0.2,0.4-0.4s0.2-0.4,0.2-0.6s0.1-0.6,0.2-1.1h1.2v2h2.6v0.8h-2.6v3.6
			c0,0.5,0,0.9,0.1,1.3s0.1,0.6,0.2,0.7s0.3,0.3,0.4,0.4s0.4,0.1,0.6,0.1c0.2,0,0.4,0,0.6-0.1s0.4-0.2,0.6-0.4l0.4,0.4
			c-0.4,0.4-0.8,0.6-1.1,0.8s-0.7,0.2-1.1,0.2c-0.7,0-1.2-0.2-1.6-0.6s-0.5-1.1-0.5-1.9V128h-1.2L145.2,127.6L145.2,127.6z"/>
		<path class="st2" d="M156.8,128.9H156c-0.1-0.3-0.3-0.6-0.4-0.8s-0.4-0.3-0.6-0.4s-0.5-0.1-0.8-0.1c-0.4,0-0.8,0.1-1,0.3
			c-0.2,0.2-0.4,0.5-0.4,0.8c0,0.2,0.1,0.5,0.1,0.6s0.3,0.3,0.5,0.5s0.6,0.3,1.1,0.6c0.6,0.2,1,0.5,1.3,0.7s0.5,0.4,0.7,0.7
			s0.3,0.6,0.3,0.9c0,0.4-0.1,0.8-0.2,1.1s-0.4,0.5-0.6,0.7s-0.6,0.3-0.9,0.4s-0.8,0.1-1.2,0.1c-0.5,0-0.9,0-1.3-0.1
			s-0.9-0.2-1.2-0.3V133h0.8c0.1,0.5,0.4,0.9,0.6,1.1s0.7,0.3,1.2,0.3c0.2,0,0.4,0,0.6-0.1s0.4-0.1,0.5-0.2s0.3-0.2,0.4-0.4
			s0.1-0.4,0.1-0.6c0-0.3-0.1-0.5-0.2-0.7s-0.3-0.3-0.5-0.5s-0.6-0.3-1.2-0.6c-0.5-0.2-0.9-0.4-1.2-0.6s-0.5-0.4-0.7-0.7
			s-0.3-0.6-0.3-0.9c0-0.4,0.1-0.8,0.4-1.2s0.6-0.6,1.1-0.8s1-0.3,1.6-0.3c0.4,0,0.7,0,1,0.1s0.8,0.1,1.3,0.2L156.8,128.9
			L156.8,128.9z"/>
		<path class="st2" d="M62.6,155v-0.4c0.3-0.1,0.6-0.2,0.7-0.3s0.2-0.3,0.2-0.4s0-0.5,0-0.9v-7.1c0-0.4,0-0.6,0-0.8
			s-0.1-0.3-0.1-0.4s-0.2-0.2-0.2-0.2s-0.3-0.1-0.5-0.2v-0.4H67c0.9,0,1.6,0.1,2.1,0.3s0.9,0.5,1.2,0.8s0.4,0.8,0.4,1.4
			c0,0.5-0.1,0.9-0.3,1.2s-0.4,0.6-0.7,0.9s-0.7,0.4-1.1,0.6v0.1c0.7,0.2,1.3,0.6,1.7,1s0.6,1,0.6,1.7s-0.2,1.3-0.5,1.8
			s-0.8,0.8-1.4,1s-1.3,0.3-2.2,0.3L62.6,155L62.6,155z M66.5,148.8c0.8,0,1.5-0.2,1.9-0.6s0.7-1,0.7-1.7c0-0.4-0.1-0.7-0.2-0.9
			s-0.3-0.4-0.5-0.6s-0.5-0.2-0.8-0.3s-0.6-0.1-0.9-0.1c-0.2,0-0.5,0-0.8,0s-0.6,0-0.8,0v4.2L66.5,148.8L66.5,148.8z M65.1,154.2
			c0.4,0,0.8,0.1,1.3,0.1c0.7,0,1.3-0.1,1.7-0.3s0.7-0.4,0.9-0.8s0.3-0.8,0.3-1.3s-0.1-1-0.3-1.3s-0.5-0.6-0.9-0.8s-1-0.2-1.7-0.2
			h-1.3V154.2L65.1,154.2z"/>
		<path class="st2" d="M74.8,148.5L74.8,148.5c0.4-0.4,0.7-0.6,0.9-0.9s0.5-0.4,0.8-0.5s0.6-0.2,1-0.2c0.3,0,0.6,0,0.9,0.1v1.9h-0.9
			c-0.1-0.3-0.3-0.5-0.4-0.6s-0.3-0.2-0.6-0.2c-0.2,0-0.4,0.1-0.6,0.2s-0.4,0.3-0.6,0.5s-0.3,0.4-0.4,0.6s-0.1,0.4-0.1,0.7v2.9
			c0,0.5,0,0.8,0.1,1s0.2,0.3,0.3,0.4s0.3,0.1,0.6,0.2v0.4h-3.3v-0.4c0.2-0.1,0.3-0.1,0.4-0.2s0.2-0.1,0.2-0.2s0.1-0.2,0.2-0.4
			s0.1-0.5,0.1-0.8v-3.6c0-0.4,0-0.6,0-0.8s-0.1-0.4-0.1-0.5s-0.2-0.2-0.3-0.3s-0.3-0.1-0.6-0.2v-0.4l1.9-0.1h0.5V148.5L74.8,148.5z
			"/>
		<path class="st2" d="M83.9,153.8L83.9,153.8c-0.6,0.5-1,0.8-1.4,1s-0.9,0.3-1.3,0.3s-0.8-0.1-1.1-0.2s-0.6-0.4-0.7-0.7
			s-0.2-0.6-0.2-1c0-0.8,0.4-1.4,1.2-1.8s2-0.7,3.5-0.8v-0.5c0-0.6-0.1-1-0.2-1.3s-0.3-0.6-0.5-0.7s-0.6-0.2-0.9-0.2
			c-0.4,0-0.8,0.1-1,0.3s-0.4,0.6-0.6,1h-1.1V148c0.5-0.3,1-0.5,1.3-0.6s0.7-0.2,1-0.3s0.7-0.1,1.1-0.1c0.5,0,1,0.1,1.3,0.3
			s0.6,0.4,0.7,0.8s0.2,0.9,0.2,1.6v2.8c0,0.4,0,0.7,0,0.9s0,0.3,0.1,0.5s0.1,0.2,0.1,0.3s0.1,0.2,0.2,0.2s0.3,0.1,0.5,0.2v0.4h-2.2
			V153.8L83.9,153.8z M83.8,151.3c-1.1,0-1.9,0.2-2.5,0.4s-0.8,0.7-0.8,1.3c0,0.3,0.1,0.6,0.2,0.7s0.3,0.3,0.5,0.4s0.4,0.1,0.7,0.1
			c0.4,0,0.7-0.1,1-0.3s0.5-0.4,0.7-0.7s0.2-0.6,0.2-0.8L83.8,151.3L83.8,151.3z"/>
		<path class="st2" d="M92.8,149H92c-0.1-0.3-0.3-0.6-0.4-0.8s-0.3-0.3-0.6-0.4s-0.5-0.1-0.8-0.1c-0.4,0-0.8,0.1-1,0.3
			s-0.4,0.5-0.4,0.8c0,0.2,0.1,0.5,0.2,0.6s0.3,0.3,0.5,0.5s0.6,0.3,1.2,0.6c0.6,0.2,1,0.5,1.3,0.7s0.5,0.4,0.7,0.7s0.3,0.6,0.3,0.9
			c0,0.4-0.1,0.8-0.2,1.1s-0.3,0.5-0.6,0.7s-0.6,0.3-0.9,0.4s-0.8,0.1-1.2,0.1c-0.5,0-0.9,0-1.3-0.1s-0.8-0.2-1.2-0.3V153h0.8
			c0.2,0.5,0.4,0.9,0.7,1.1s0.7,0.3,1.2,0.3c0.2,0,0.4,0,0.6-0.1s0.3-0.1,0.5-0.2s0.3-0.2,0.3-0.4s0.1-0.4,0.1-0.6
			c0-0.3-0.1-0.5-0.2-0.7s-0.3-0.3-0.5-0.5s-0.6-0.3-1.2-0.6c-0.5-0.2-0.9-0.4-1.2-0.6s-0.5-0.4-0.7-0.7s-0.3-0.6-0.3-0.9
			c0-0.4,0.1-0.8,0.4-1.2s0.6-0.6,1.1-0.8s1-0.3,1.6-0.3c0.4,0,0.7,0,1,0.1s0.8,0.1,1.3,0.2L92.8,149L92.8,149z"/>
		<path class="st2" d="M98.1,155.1c-1.1,0-2-0.3-2.6-1s-0.9-1.6-0.9-2.9c0-0.9,0.2-1.6,0.5-2.3s0.7-1.1,1.3-1.4s1.2-0.4,1.9-0.4
			c1.2,0,2,0.3,2.6,1s0.9,1.6,0.9,2.9c0,0.9-0.2,1.7-0.4,2.3s-0.7,1.1-1.3,1.4S98.8,155.1,98.1,155.1L98.1,155.1z M96.1,151
			c0,1.1,0.2,2,0.5,2.6s0.9,0.9,1.5,0.9c0.4,0,0.7-0.1,0.9-0.3s0.5-0.4,0.6-0.7s0.3-0.6,0.3-1s0.1-0.8,0.1-1.2c0-0.8-0.1-1.5-0.3-2
			s-0.4-0.9-0.7-1.2s-0.7-0.4-1-0.4c-0.7,0-1.2,0.3-1.5,0.9S96.1,149.9,96.1,151L96.1,151z"/>
		<path class="st2" d="M105.8,147.2v0.4c-0.2,0.1-0.4,0.1-0.5,0.2s-0.2,0.1-0.2,0.2s-0.1,0.2-0.1,0.4s0,0.3,0.1,0.5s0.1,0.4,0.2,0.6
			l1.4,4.1l1.7-3.9c0.1-0.3,0.2-0.5,0.2-0.6s0.1-0.3,0.1-0.5s-0.1-0.4-0.2-0.5s-0.3-0.2-0.7-0.3v-0.4h3.1v0.4
			c-0.2,0-0.4,0.1-0.5,0.2s-0.2,0.2-0.3,0.4s-0.2,0.5-0.4,0.8l-2.8,6h-1l-2.2-6.1c-0.2-0.4-0.3-0.7-0.4-0.9s-0.2-0.3-0.3-0.4
			s-0.3-0.1-0.5-0.2v-0.4H105.8L105.8,147.2z"/>
	</g>
</g>
</svg>
